# xmcd
#
# Track frame offsets:
#	150
#	15157
#	33570
#	50421
#	63712
#	76312
#	91751
#	107010
#	121979
#	139192
#
# Disc length: 2132 seconds
# Revision: 0
# Processed by: cddbd v1.5.2PL0 Copyright (c) Steve Scherf et al.
# Submitted via: dBpowerAMP V12.0
#
DISCID=7908520a
DTITLE=Sarah Darling - Dream Country
DYEAR=2016
DGENRE=Country
TTITLE0=Wandering Star
TTITLE1=Where Cowboys Ride
TTITLE2=Anchor
TTITLE3=Tell That Devil
TTITLE4=Please, Please, Please Let Me Get What I Want
TTITLE5=Starry Eyes
TTITLE6=Montmartre
TTITLE7=Halley's Comet
TTITLE8=You Take Me All The Way
TTITLE9=Stargazer
EXTD=
EXTT0=
EXTT1=
EXTT2=
EXTT3=
EXTT4=
EXTT5=
EXTT6=
EXTT7=
EXTT8=
EXTT9=
PLAYORDER=
